<?xml version="1.0" encoding="utf-8"?>
<!-- Generator: Adobe Illustrator 16.0.0, SVG Export Plug-In . SVG Version: 6.00 Build 0)  -->
<!DOCTYPE svg PUBLIC "-//W3C//DTD SVG 1.1//EN" "http://www.w3.org/Graphics/SVG/1.1/DTD/svg11.dtd">
<svg version="1.1" id="Layer_1" xmlns="http://www.w3.org/2000/svg" xmlns:xlink="http://www.w3.org/1999/xlink" x="0px" y="0px"
	 width="204px" height="112px" viewBox="0 0 204 112" enable-background="new 0 0 204 112" xml:space="preserve">
<path fill="#577DBE" d="M112.748,76.247c-0.285-0.623-0.454-1.311-0.454-2.04c0-0.483,0.092-0.942,0.222-1.383
	c-11.777-7.176-23.246-13.517-33.557-18.885c-0.877,0.812-2.042,1.319-3.331,1.319c-1.512,0-2.848-0.697-3.752-1.771
	c-11.098,4.328-20.479,8.729-28.167,12.773C22.403,77.47,10.087,87.92,5.822,91.848c6.174,11.753,18.492,19.773,32.69,19.773h39.521
	C84.134,104.735,96.838,90.892,112.748,76.247z"/>
<path fill="#577DBE" d="M117.216,79.129c-0.919,0-1.768-0.269-2.504-0.707c-14.41,13.272-26.18,25.898-32.728,33.199h81.372v-0.026
	c0.879-0.023,1.748-0.085,2.612-0.163c-14.035-12.389-29.826-23.696-45.43-33.615C119.662,78.624,118.501,79.129,117.216,79.129z"/>
<path fill="#577DBE" d="M202.4,71.511c0-16.869-10.418-31.295-25.168-37.222c-18.894,8.148-38.616,22.941-55.56,37.86
	c0.29,0.628,0.464,1.321,0.464,2.059c0,0.366-0.047,0.721-0.123,1.065c16.468,10.459,33.146,22.454,47.787,35.624
	C188.361,107.38,202.4,91.094,202.4,71.511z"/>
<path fill="#577DBE" d="M75.628,45.415c1.64,0,3.083,0.81,3.978,2.044c19.05-6.785,42.441-13.108,70.333-17.271
	c-9.342-17.158-27.52-28.811-48.431-28.811c-23.426,0-43.419,14.624-51.398,35.232c5.761,2.612,13.253,6.13,21.866,10.456
	C72.876,46.06,74.172,45.415,75.628,45.415z"/>
<path fill="#577DBE" d="M70.749,50.759c-0.012-0.142-0.042-0.278-0.042-0.423c0-0.201,0.036-0.392,0.06-0.587
	c-8.627-4.332-16.129-7.851-21.884-10.458c-3.292-0.963-6.768-1.493-10.37-1.493C18.125,37.798,1.6,54.324,1.6,74.71
	c0,5.091,1.03,9.94,2.894,14.353c4.958-4.468,17.305-14.611,37.841-25.415C50.094,59.566,59.557,55.125,70.749,50.759z"/>
<path fill="#577DBE" d="M173.124,32.893c0,0-0.736-0.298-2.355-0.58C171.563,32.484,172.349,32.676,173.124,32.893z"/>
<path fill="#577DBE" d="M156.119,32.298c-30.257,4.095-55.389,10.766-75.577,17.961c0,0.027,0.008,0.051,0.008,0.078
	c0,0.363-0.045,0.715-0.12,1.056c10.366,5.402,21.892,11.778,33.725,18.99c0.842-0.676,1.897-1.097,3.062-1.097
	c0.911,0,1.754,0.265,2.486,0.697c16.28-14.332,35.129-28.583,53.422-37.09c-0.775-0.217-1.562-0.408-2.355-0.58
	C168.239,31.873,163.549,31.471,156.119,32.298z"/>
</svg>
